<svg width="24" height="25" viewBox="0 0 24 25" fill="none" xmlns="http://www.w3.org/2000/svg">
<g clip-path="url(#clip0_86_56162)">
<path d="M14 2.74023H6C4.9 2.74023 4 3.64023 4 4.74023V20.7402C4 21.8402 4.9 22.7402 6 22.7402H18C19.1 22.7402 20 21.8402 20 20.7402V8.74023L14 2.74023ZM15 11.7402H11V12.7402H14C14.55 12.7402 15 13.1902 15 13.7402V16.7402C15 17.2902 14.55 17.7402 14 17.7402H13V18.7402H11V17.7402H9V15.7402H13V14.7402H10C9.45 14.7402 9 14.2902 9 13.7402V10.7402C9 10.1902 9.45 9.74023 10 9.74023H11V8.74023H13V9.74023H15V11.7402Z" fill="#516079"/>
</g>
<defs>
<clipPath id="clip0_86_56162">
<rect width="24" height="24" fill="white" transform="translate(0 0.740234)"/>
</clipPath>
</defs>
</svg>
