<svg width="21" height="22" viewBox="0 0 21 22" fill="none" xmlns="http://www.w3.org/2000/svg">
<path d="M6.93359 9.38763C6.93359 8.92792 7.11621 8.48704 7.44128 8.16198C7.76634 7.83692 8.20722 7.6543 8.66693 7.6543H15.6003C16.06 7.6543 16.5008 7.83692 16.8259 8.16198C17.151 8.48704 17.3336 8.92792 17.3336 9.38763V16.321C17.3336 16.7807 17.151 17.2216 16.8259 17.5466C16.5008 17.8717 16.06 18.0543 15.6003 18.0543H8.66693C8.20722 18.0543 7.76634 17.8717 7.44128 17.5466C7.11621 17.2216 6.93359 16.7807 6.93359 16.321V9.38763Z" stroke="#516079" stroke-width="1.29981" stroke-linecap="round" stroke-linejoin="round"/>
<path d="M13.8668 7.65417V5.92083C13.8668 5.46112 13.6842 5.02024 13.3591 4.69518C13.0341 4.37012 12.5932 4.1875 12.1335 4.1875H5.20013C4.74042 4.1875 4.29954 4.37012 3.97448 4.69518C3.64942 5.02024 3.4668 5.46112 3.4668 5.92083V12.8542C3.4668 13.3139 3.64942 13.7548 3.97448 14.0798C4.29954 14.4049 4.74042 14.5875 5.20013 14.5875H6.93346" stroke="#516079" stroke-width="1.29981" stroke-linecap="round" stroke-linejoin="round"/>
</svg>
