<svg width="22" height="22" viewBox="0 0 22 22" fill="none" xmlns="http://www.w3.org/2000/svg">
<mask id="mask0_695_30178" style="mask-type:alpha" maskUnits="userSpaceOnUse" x="0" y="0" width="22" height="22">
<rect x="0.525391" y="0.451172" width="21" height="21" fill="#516079"/>
</mask>
<g mask="url(#mask0_695_30178)">
<path d="M9.27539 8.98242L11.0254 8.10742L12.7754 8.98242V4.82617H9.27539V8.98242ZM6.65039 15.3262V13.5762H11.0254V15.3262H6.65039ZM4.90039 18.8262C4.41914 18.8262 4.00716 18.6548 3.66445 18.3121C3.32174 17.9694 3.15039 17.5574 3.15039 17.0762V4.82617C3.15039 4.34492 3.32174 3.93294 3.66445 3.59023C4.00716 3.24753 4.41914 3.07617 4.90039 3.07617H17.1504C17.6316 3.07617 18.0436 3.24753 18.3863 3.59023C18.729 3.93294 18.9004 4.34492 18.9004 4.82617V17.0762C18.9004 17.5574 18.729 17.9694 18.3863 18.3121C18.0436 18.6548 17.6316 18.8262 17.1504 18.8262H4.90039ZM4.90039 17.0762H17.1504V4.82617H14.5254V11.8262L11.0254 10.0762L7.52539 11.8262V4.82617H4.90039V17.0762Z" fill="#516079"/>
</g>
</svg>
