<svg width="20" height="20" viewBox="0 0 20 20" fill="none" xmlns="http://www.w3.org/2000/svg">
<path d="M17.1401 11.0205C17.1801 10.7205 17.2001 10.4105 17.2001 10.0805C17.2001 9.76047 17.1801 9.44047 17.1301 9.14047L19.1601 7.56047C19.3401 7.42047 19.3901 7.15047 19.2801 6.95047L17.3601 3.63047C17.2401 3.41047 16.9901 3.34047 16.7701 3.41047L14.3801 4.37047C13.8801 3.99047 13.3501 3.67047 12.7601 3.43047L12.4001 0.890469C12.3601 0.650469 12.1601 0.480469 11.9201 0.480469H8.08011C7.84011 0.480469 7.65011 0.650469 7.61011 0.890469L7.25011 3.43047C6.66011 3.67047 6.12011 4.00047 5.63011 4.37047L3.24011 3.41047C3.02011 3.33047 2.77011 3.41047 2.65011 3.63047L0.74011 6.95047C0.62011 7.16047 0.66011 7.42047 0.86011 7.56047L2.89011 9.14047C2.84011 9.44047 2.80011 9.77047 2.80011 10.0805C2.80011 10.3905 2.82011 10.7205 2.87011 11.0205L0.84011 12.6005C0.66011 12.7405 0.61011 13.0105 0.72011 13.2105L2.64011 16.5305C2.76011 16.7505 3.01011 16.8205 3.23011 16.7505L5.62011 15.7905C6.12011 16.1705 6.65011 16.4905 7.24011 16.7305L7.60011 19.2705C7.65011 19.5105 7.84011 19.6805 8.08011 19.6805H11.9201C12.1601 19.6805 12.3601 19.5105 12.3901 19.2705L12.7501 16.7305C13.3401 16.4905 13.8801 16.1705 14.3701 15.7905L16.7601 16.7505C16.9801 16.8305 17.2301 16.7505 17.3501 16.5305L19.2701 13.2105C19.3901 12.9905 19.3401 12.7405 19.1501 12.6005L17.1401 11.0205ZM10.0001 13.6805C8.02011 13.6805 6.40011 12.0605 6.40011 10.0805C6.40011 8.10047 8.02011 6.48047 10.0001 6.48047C11.9801 6.48047 13.6001 8.10047 13.6001 10.0805C13.6001 12.0605 11.9801 13.6805 10.0001 13.6805Z" fill="#516079"/>
</svg>
